<svg width="117" height="40" viewBox="0 0 117 40" fill="none" xmlns="http://www.w3.org/2000/svg">
<path d="M35.1464 15.6626H38.0914C38.6212 15.6626 38.9749 15.8978 39.1509 16.398L43.3018 26.8797L47.4248 16.398C47.6008 15.8978 47.9546 15.6626 48.4843 15.6626H51.4589C52.1664 15.6626 52.4313 16.1035 52.1664 16.7517L45.8948 31.6214C45.6892 32.1511 45.3354 32.3567 44.8057 32.3567H41.7735C41.2438 32.3567 40.89 32.1511 40.6844 31.6214L34.4128 16.7517C34.1479 16.0739 34.4424 15.6626 35.1482 15.6626H35.1464Z" fill="#009EDA"/>
<path d="M57.4064 13.9251C55.9636 13.9251 54.8152 12.8064 54.8152 11.4524C54.8152 10.0984 55.9932 9.03711 57.4064 9.03711C58.8197 9.03711 59.9384 10.0966 59.9384 11.4524C59.9384 12.8081 58.8197 13.9251 57.4064 13.9251Z" fill="#E94E34"/>
<path d="M56.0822 15.6626H58.6734C59.1927 15.6626 59.6162 16.0843 59.6162 16.6053V31.4157C59.6162 31.935 59.1944 32.3585 58.6734 32.3585H56.0822C55.5629 32.3585 55.1394 31.9368 55.1394 31.4157V16.6053C55.1394 16.0861 55.5611 15.6626 56.0822 15.6626Z" fill="#009EDA"/>
<path d="M64.2077 37.5113C63.6483 37.1872 63.5298 36.687 63.854 36.0684L64.5615 34.7719C64.8856 34.1829 65.3857 34.0662 66.0043 34.3589C67.2712 35.0072 68.8901 35.5073 70.8331 35.5073C73.9541 35.5073 75.9563 34.2404 75.9563 30.9434V30.2952C74.8376 31.7084 73.1002 32.6512 70.4201 32.6512C66.0618 32.6512 62.9705 29.206 62.9705 23.9939C62.9705 18.7818 66.0618 15.3367 70.4201 15.3367C73.1002 15.3367 74.8376 16.2794 75.9563 17.6927V16.7499C75.9563 16.0424 76.3397 15.6608 77.0158 15.6608H79.3718C80.0497 15.6608 80.4313 16.0442 80.4313 16.7499V31.2658C80.4313 36.4187 77.34 39.2452 71.2443 39.2452C68.0641 39.2452 65.7377 38.3913 64.2077 37.5078V37.5113ZM76.0452 23.9957C76.0452 21.3452 74.5727 19.3725 71.8647 19.3725C69.1567 19.3725 67.5065 21.3452 67.5065 23.9957C67.5065 26.6462 69.155 28.6188 71.8647 28.6188C74.5745 28.6188 76.0452 26.5869 76.0452 23.9957Z" fill="#009EDA"/>
<path d="M87.0273 13.9251C85.5844 13.9251 84.436 12.8064 84.436 11.4524C84.436 10.0984 85.614 9.03711 87.0273 9.03711C88.4405 9.03711 89.5593 10.0966 89.5593 11.4524C89.5593 12.8081 88.4405 13.9251 87.0273 13.9251Z" fill="#E94E34"/>
<path d="M88.2923 15.6626H85.7028C85.1821 15.6626 84.76 16.0847 84.76 16.6053V31.4157C84.76 31.9364 85.1821 32.3585 85.7028 32.3585H88.2923C88.8129 32.3585 89.235 31.9364 89.235 31.4157V16.6053C89.235 16.0847 88.8129 15.6626 88.2923 15.6626Z" fill="#009EDA"/>
<path d="M93.5637 31.4156V10.4503C93.5637 9.83169 93.8878 9.50757 94.5065 9.50757H97.0977C97.7163 9.50757 98.0405 9.83169 98.0405 10.4503V31.4156C98.0405 32.0342 97.7163 32.3583 97.0977 32.3583H94.5065C93.8878 32.3583 93.5637 32.0342 93.5637 31.4156Z" fill="#009EDA"/>
<path d="M112.673 31.5341L112.644 30.4449C111.642 31.8582 109.787 32.6528 107.52 32.6528C103.84 32.6528 101.189 30.8562 101.189 27.4407C101.189 24.0252 104.664 22.0822 108.02 22.0822C109.523 22.0822 110.995 22.2878 112.525 22.7304C112.584 20.1984 111.201 19.1093 108.785 19.1093C107.167 19.1093 105.4 19.4927 104.073 19.9632C103.484 20.1688 103.044 19.9928 102.836 19.3742L102.366 17.9313C102.19 17.3719 102.366 16.9014 102.925 16.6662C104.722 15.9308 106.959 15.3418 109.432 15.3418C114.674 15.3418 117 17.9034 117 22.9971V31.3894C117 32.0081 116.646 32.3618 116.028 32.3618H113.642C113.023 32.3618 112.67 32.0673 112.67 31.5376L112.673 31.5341ZM112.527 26.4997V25.3809C111.467 24.9976 110.349 24.8216 109.171 24.8216C107.257 24.8216 105.666 25.5569 105.666 27.1183C105.666 28.6797 107.079 29.4447 108.787 29.4447C110.76 29.4447 112.527 28.4723 112.527 26.4997Z" fill="#009EDA"/>
<path d="M19.9004 8.97455C15.753 8.95015 13.0084 11.3654 12.6373 15.2758C12.5989 15.5964 12.5902 15.8665 12.6041 16.0879C12.6512 16.6577 12.8429 16.947 13.099 16.9313C13.3988 16.9138 13.9041 15.9206 14.2596 15.2932C14.7336 14.462 15.1937 13.9671 15.6624 13.9706C16.9101 13.9776 17.4102 19.0329 17.0966 22.2567C16.8439 24.8514 15.8611 28.6468 15.164 29.7377C15.0264 29.9538 15.0299 30.2291 15.1815 30.4382C15.5561 30.9575 16.3072 31.8166 17.5357 32.4666C19.3306 33.4111 21.3102 33.4947 22.828 32.843C22.9831 32.7768 23.1033 32.6461 23.1695 32.491C23.9049 30.7728 24.5357 29.0633 25.0498 27.3991C26.1686 23.8058 26.7715 20.4165 26.7889 17.6091C26.822 11.9213 24.466 9.00069 19.9039 8.97455H19.9004Z" fill="#E94E34"/>
<path d="M22.5944 33.8972C22.8018 33.8275 22.9883 34.0401 22.8994 34.2405C22.5073 35.1328 22.2442 35.6364 21.69 36.7098C20.8553 38.313 20.1513 39.3185 18.3686 39.3185H9.83685C8.06288 39.3185 7.35016 38.313 6.51545 36.7098C3.31603 30.5514 1.14649 21.6102 0.0207683 10.6492C-0.156977 8.93097 0.81191 8.96931 2.70786 8.96931H8.39572C10.1767 8.96931 10.1523 9.88243 10.2655 11.7139C10.3579 13.04 10.7395 15.8317 10.9242 17.2066C11.5829 22.0963 12.7243 26.9948 13.9842 29.6087C14.7266 31.1492 15.6066 32.5415 17.2255 33.3849C18.9088 34.258 21.0575 34.4148 22.5944 33.8955V33.8972Z" fill="#009EDA"/>
<path d="M21.4391 0.681396C23.9171 0.681396 25.3442 2.25845 25.3442 4.21017C25.3442 6.16188 23.9171 7.73894 21.4391 7.73894C18.9611 7.73894 17.5356 6.16188 17.5356 4.21017C17.5356 2.25845 18.9628 0.681396 21.4391 0.681396Z" fill="#009EDA"/>
<path d="M5.34801 0.681396C7.82599 0.681396 9.25319 2.25845 9.25319 4.21017C9.25319 6.16188 7.82599 7.73894 5.34801 7.73894C2.87003 7.73894 1.44458 6.16188 1.44458 4.21017C1.44458 2.25845 2.87177 0.681396 5.34801 0.681396Z" fill="#E94E34"/>
</svg>
